<svg xmlns="http://www.w3.org/2000/svg" viewBox="0 0 300 300" fill="none">
  <path fill="currentColor" d="M150 25c-69.036 0-125 55.964-125 125s55.964 125 125 125 125-55.964 125-125S219.036 25 150 25zm0 20c58.017 0 105 46.983 105 105s-46.983 105-105 105S45 208.017 45 150 91.983 45 150 45zm35.5 50c-8.284 0-15 6.716-15 15s6.716 15 15 15 15-6.716 15-15-6.716-15-15-15zm-71 0c-8.284 0-15 6.716-15 15s6.716 15 15 15 15-6.716 15-15-6.716-15-15-15zm35.5 30c-24.853 0-45 20.147-45 45 0 16.569 8.954 31.037 22.285 38.787C133.954 216.037 142.908 220 150 220c7.092 0 16.046-3.963 22.715-11.213C186.046 201.037 195 186.569 195 170c0-24.853-20.147-45-45-45z"/>
</svg>